:SAMPLES-PER-SECOND 30
:FULLY-SPECIFIED
:DEGREES
853
root  -63.7595 41.3696 24.9694 173.211 -2.55306 178.354
RightUpLeg  4.36126 -8.83826 -5.86915
RightLeg  9.92952 -0.998415 1.66612
RightFoot  -5.85474 0.0160488 -1.09007
RightToes  0.00048216 0.542163 -0.142577
Spine  5.93128 3.13682 4.78461
Spine1  10.476 5.70538 -7.53003
HEad  -61.8772 -11.4455 12.1465
LeftShoulder1  10.0329 -16.3155 -44.0659
LeftArm  1.66638 20.3218 -23.4
LeftForeArm  29.8962 -24.0572 -3.57971
LeftHand  -0.25398 0.0180481 5.50724
RightShoulder  0.766388 2.60065 4.70638
RightArm  -42.5034 67.0287 32.6388
RightForeArm  166.427 59.2677 162.967
RightHand  -3.58375 7.90374 -30.9695
LeftUpLeg  4.96947 5.1286 1.71064
LeftLeg  6.09321 12.4781 -2.05804
LeftFoot  -3.42282 -0.0154354 0.568944
LeftToes  1.06247e-005 4.65855e-005 -8.18501e-006
854
root  -63.7458 41.3687 24.9404 173.187 -2.5014 178.368
RightUpLeg  4.4443 -8.80656 -5.83829
RightLeg  9.88551 -0.988087 1.6816
RightFoot  -5.83884 0.0211164 -1.17527
RightToes  0.00048216 0.542163 -0.142577
Spine  6.05866 3.09079 4.8418
Spine1  10.4615 5.65533 -7.49958
HEad  -61.4844 -11.4609 12.1202
LeftShoulder1  9.99583 -16.299 -43.9333
LeftArm  1.33779 20.3353 -23.5632
LeftForeArm  30.2177 -24.1863 -3.59035
LeftHand  -0.25398 0.0180481 5.50724
RightShoulder  0.746503 2.51534 4.53567
RightArm  -42.2203 66.9153 33.1227
RightForeArm  166.382 59.2343 162.984
RightHand  -3.59452 7.8931 -31.0801
LeftUpLeg  5.06411 5.15535 1.76553
LeftLeg  6.06032 12.4877 -2.06822
LeftFoot  -3.45184 -0.0141096 0.533592
LeftToes  1.06247e-005 4.65855e-005 -8.18501e-006
855
root  -63.7352 41.3681 24.9229 173.156 -2.44409 178.374
RightUpLeg  4.52132 -8.74733 -5.80545
RightLeg  9.82452 -0.978559 1.67901
RightFoot  -5.79932 0.0247743 -1.2356
RightToes  0.00048216 0.542163 -0.142577
Spine  6.28498 3.00422 5.32569
Spine1  10.3298 5.76062 -8.1423
HEad  -61.0754 -11.3697 12.301
LeftShoulder1  9.91395 -16.4028 -43.3122
LeftArm  1.38261 20.4439 -23.9084
LeftForeArm  30.1933 -24.2723 -3.60942
LeftHand  -0.25398 0.0180481 5.50724
RightShoulder  0.754535 2.47358 4.78394
RightArm  -42.4016 66.654 32.9412
RightForeArm  165.989 59.2513 162.938
RightHand  -3.66184 8.03348 -31.3167
LeftUpLeg  5.15795 5.15203 1.80079
LeftLeg  6.00719 12.5372 -2.08613
LeftFoot  -3.4564 -0.0156024 0.539701
LeftToes  1.06247e-005 4.65855e-005 -8.18501e-006
856
root  -63.7232 41.3679 24.9145 173.138 -2.46228 178.38
RightUpLeg  4.57416 -8.74803 -5.78991
RightLeg  9.79433 -0.97465 1.69137
RightFoot  -5.78872 0.0205174 -1.16952
RightToes  0.00048216 0.542163 -0.142577
Spine  6.4169 2.94777 5.53228
Spine1  10.4263 5.78002 -8.34995
HEad  -60.8368 -11.3338 12.2728
LeftShoulder1  9.89797 -16.4892 -43.0388
LeftArm  1.55114 20.3504 -24.0324
LeftForeArm  30.0361 -24.3359 -3.63065
LeftHand  -0.25398 0.0180481 5.50724
RightShoulder  0.777612 2.48434 5.19424
RightArm  -42.4149 66.4953 32.6553
RightForeArm  165.608 59.3452 162.844
RightHand  -3.79785 8.40225 -31.5981
LeftUpLeg  5.17657 5.17267 1.83658
LeftLeg  6.03708 12.5072 -2.09111
LeftFoot  -3.46731 -0.0232577 0.639241
LeftToes  1.06247e-005 4.65855e-005 -8.18501e-006
857
root  -63.7141 41.3683 24.919 173.171 -2.48477 178.387
RightUpLeg  4.53542 -8.76517 -5.77744
RightLeg  9.80235 -0.959497 1.70998
RightFoot  -5.80008 0.0107916 -1.01463
RightToes  0.00048216 0.542163 -0.142577
Spine  6.47819 2.89797 5.39332
Spine1  10.6946 5.64468 -7.98357
HEad  -60.6081 -11.3486 11.9712
LeftShoulder1  9.91476 -16.456 -43.1931
LeftArm  1.22 20.1245 -24.0638
LeftForeArm  30.3379 -24.3988 -3.6283
LeftHand  -0.25398 0.0180481 5.50724
RightShoulder  0.782205 2.41771 5.44618
RightArm  -41.8622 66.6074 32.938
RightForeArm  165.369 59.4816 162.734
RightHand  -3.89842 8.68147 -31.7822
LeftUpLeg  5.09439 5.1951 1.85111
LeftLeg  6.1053 12.4794 -2.06718
LeftFoot  -3.45352 -0.0305108 0.730184
LeftToes  1.06247e-005 4.65855e-005 -8.18501e-006
858
root  -63.7122 41.3694 24.9433 173.254 -2.45216 178.374
RightUpLeg  4.39202 -8.71902 -5.76471
RightLeg  9.81025 -0.964149 1.7014
RightFoot  -5.77059 0.00404919 -0.901875
RightToes  0.00048216 0.542163 -0.142577
Spine  6.63212 2.75627 5.46175
Spine1  10.8348 5.50808 -7.93789
HEad  -60.0486 -11.3378 11.7304
LeftShoulder1  9.85844 -16.3872 -43.0903
LeftArm  0.59816 20.0544 -24.3101
LeftForeArm  30.9418 -24.5346 -3.62567
LeftHand  -0.25398 0.0180481 5.50724
RightShoulder  0.808322 2.53149 5.65153
RightArm  -41.0641 66.5402 33.5668
RightForeArm  165.253 59.5669 162.668
RightHand  -3.95368 8.8187 -31.9139
LeftUpLeg  4.97429 5.16096 1.80583
LeftLeg  6.06234 12.5405 -2.04943
LeftFoot  -3.33423 -0.0322563 0.733178
LeftToes  1.06247e-005 4.65855e-005 -8.18501e-006
859
root  -63.7114 41.3731 24.9872 173.332 -2.44354 178.327
RightUpLeg  4.23579 -8.69727 -5.79881
RightLeg  9.79292 -0.980053 1.70651
RightFoot  -5.68037 0.00554602 -0.912475
RightToes  0.00048216 0.542163 -0.142577
Spine  6.88828 2.53046 5.81132
Spine1  10.912 5.43282 -8.3717
HEad  -59.0716 -11.3696 11.5811
LeftShoulder1  9.75244 -16.3708 -42.6349
LeftArm  0.404316 20.0653 -24.6253
LeftForeArm  31.2079 -24.7846 -3.66415
LeftHand  -0.25398 0.0180481 5.50724
RightShoulder  0.91167 3.15377 5.99044
RightArm  -40.2229 65.8052 34.1285
RightForeArm  165.382 59.538 162.699
RightHand  -4.08172 9.15809 -32.1643
LeftUpLeg  4.88915 5.05271 1.71178
LeftLeg  5.88157 12.6293 -2.07424
LeftFoot  -3.11797 -0.0312583 0.691178
LeftToes  1.06247e-005 4.65855e-005 -8.18501e-006
860
root  -63.7116 41.3783 25.046 173.358 -2.53344 178.282
RightUpLeg  4.14608 -8.81084 -5.89083
RightLeg  9.75965 -0.955687 1.78744
RightFoot  -5.57376 0.0126212 -1.00466
RightToes  0.00048216 0.542163 -0.142577
Spine  7.1548 2.34099 5.96478
Spine1  11.2498 5.31368 -8.47362
HEad  -57.8015 -11.5187 11.1791
LeftShoulder1  9.70898 -16.3545 -42.4692
LeftArm  0.6071 19.8054 -24.6883
LeftForeArm  31.1088 -25.0851 -3.73204
LeftHand  -0.25398 0.0180481 5.50724
RightShoulder  1.04585 3.95001 6.3764
RightArm  -38.7386 64.7219 35.0689
RightForeArm  165.677 59.4885 162.758
RightHand  -4.3681 9.94219 -32.6337
LeftUpLeg  4.82894 4.92488 1.62934
LeftLeg  5.70666 12.6585 -2.11464
LeftFoot  -2.91686 -0.0317514 0.670002
LeftToes  1.06247e-005 4.65855e-005 -8.18501e-006
861
root  -63.7129 41.382 25.1205 173.363 -2.6602 178.275
RightUpLeg  4.083 -8.94143 -5.96709
RightLeg  9.69692 -0.933121 1.90299
RightFoot  -5.46291 0.0186033 -1.07433
RightToes  0.00048216 0.542163 -0.142577
Spine  7.46686 2.22653 5.87176
Spine1  11.8156 5.13307 -8.05743
HEad  -56.1604 -11.6436 10.4801
LeftShoulder1  9.72625 -16.2817 -42.7175
LeftArm  0.528347 19.2829 -24.6406
LeftForeArm  31.1829 -25.4015 -3.79475
LeftHand  -0.25398 0.0180481 5.50724
RightShoulder  1.12999 4.3205 6.84015
RightArm  -36.2147 63.9357 36.7972
RightForeArm  165.579 59.646 162.646
RightHand  -4.77944 11.0424 -33.2787
LeftUpLeg  4.73006 4.83158 1.58349
LeftLeg  5.61071 12.6614 -2.12882
LeftFoot  -2.77284 -0.0344202 0.680283
LeftToes  1.06247e-005 4.65855e-005 -8.18501e-006
862
root  -63.7168 41.3875 25.2159 173.435 -2.7345 178.282
RightUpLeg  3.93501 -8.89406 -5.97276
RightLeg  9.55404 -1.01894 1.96771
RightFoot  -5.29413 0.0206182 -1.07319
RightToes  0.00048216 0.542163 -0.142577
Spine  7.87042 2.11306 5.95629
Spine1  12.3255 5.00447 -7.78006
HEad  -53.8725 -11.6322 9.76104
LeftShoulder1  9.72254 -16.202 -42.8847
LeftArm  -0.00167085 18.8438 -24.7899
LeftForeArm  31.5976 -25.8659 -3.87167
LeftHand  -0.25398 0.0180481 5.50724
RightShoulder  1.18446 4.33408 7.59161
RightArm  -32.9158 63.3107 39.0984
RightForeArm  164.92 60.1133 162.274
RightHand  -5.31791 12.444 -34.0581
LeftUpLeg  4.54542 4.7604 1.53726
LeftLeg  5.47763 12.7075 -2.14886
LeftFoot  -2.58777 -0.039227 0.718671
LeftToes  1.06247e-005 4.65855e-005 -8.18501e-006
863
root  -63.7221 41.3986 25.3355 173.638 -2.77139 178.269
RightUpLeg  3.6248 -8.71709 -5.93592
RightLeg  9.33244 -1.20201 1.98822
RightFoot  -5.03474 0.0234744 -1.04568
RightToes  0.00048216 0.542163 -0.142577
Spine  8.22335 1.98247 6.1518
Spine1  12.9372 4.89951 -7.59906
HEad  -50.915 -11.6405 8.93629
LeftShoulder1  9.69563 -16.0803 -43.0419
LeftArm  -0.537153 18.4337 -24.9523
LeftForeArm  32.0115 -26.6573 -4.01942
LeftHand  -0.25398 0.0180481 5.50724
RightShoulder  1.24957 4.41699 8.33374
RightArm  -28.7305 62.195 42.3313
RightForeArm  164.386 60.7113 161.813
RightHand  -6.00866 14.2021 -34.972
LeftUpLeg  4.2401 4.68373 1.47604
LeftLeg  5.22015 12.7622 -2.24342
LeftFoot  -2.28382 -0.0496182 0.800411
LeftToes  1.06247e-005 4.65855e-005 -8.18501e-006
864
root  -63.7223 41.4127 25.4812 173.961 -2.8396 178.252
RightUpLeg  3.13621 -8.59843 -5.88456
RightLeg  9.1215 -1.40026 2.02632
RightFoot  -4.71158 0.0287925 -1.04849
RightToes  0.00048216 0.542163 -0.142577
Spine  8.58823 1.83177 6.17735
Spine1  13.6445 4.72925 -7.30002
HEad  -47.3139 -11.5562 8.05978
LeftShoulder1  9.59806 -15.8718 -43.0698
LeftArm  -1.10871 18.0157 -25.2035
LeftForeArm  32.4774 -27.7466 -4.23143
LeftHand  -0.25398 0.0180481 5.50724
RightShoulder  1.37475 4.8138 9.17228
RightArm  -23.3398 60.0767 46.7353
RightForeArm  163.648 61.2259 161.377
RightHand  -6.48053 15.2037 -35.8026
LeftUpLeg  3.77855 4.59873 1.42861
LeftLeg  4.91905 12.7709 -2.39876
LeftFoot  -1.90371 -0.0650067 0.926827
LeftToes  1.06247e-005 4.65855e-005 -8.18501e-006
865
root  -63.7224 41.4247 25.658 174.376 -2.95586 178.261
RightUpLeg  2.4621 -8.55818 -5.80628
RightLeg  8.9932 -1.62701 2.08418
RightFoot  -4.34668 0.0363588 -1.0771
RightToes  0.00048216 0.542163 -0.142577
Spine  9.21715 1.68084 6.04495
Spine1  14.129 4.49102 -6.84839
HEad  -43.0255 -11.6146 7.21957
LeftShoulder1  9.49282 -15.6415 -43.1138
LeftArm  -1.88118 17.6526 -25.4634
LeftForeArm  33.1438 -28.9536 -4.46346
LeftHand  -0.25398 0.0180481 5.50724
RightShoulder  1.57487 5.41169 10.4432
RightArm  -17.2847 56.9036 51.4553
RightForeArm  163.334 61.7487 160.959
RightHand  -7.41857 17.2109 -37.2117
LeftUpLeg  3.14249 4.47656 1.37044
LeftLeg  4.6493 12.8082 -2.51832
LeftFoot  -1.49526 -0.0834937 1.07434
LeftToes  1.06247e-005 4.65855e-005 -8.18501e-006
866
root  -63.7305 41.4335 25.8653 174.922 -3.10637 178.266
RightUpLeg  1.57435 -8.52029 -5.73051
RightLeg  8.91041 -1.90171 2.14663
RightFoot  -3.94351 0.0440717 -1.09538
RightToes  0.00048216 0.542163 -0.142577
Spine  10.1361 1.5154 6.09355
Spine1  14.36 4.29474 -6.54952
HEad  -38.2755 -11.9008 6.52529
LeftShoulder1  9.40902 -15.4206 -43.2402
LeftArm  -2.71771 17.2753 -25.6796
LeftForeArm  33.897 -30.2249 -4.71126
LeftHand  -0.25398 0.0180481 5.50724
RightShoulder  1.81694 5.8929 12.2988
RightArm  -11.6889 53.0176 55.3117
RightForeArm  161.764 62.4812 160.239
RightHand  -8.2303 18.8719 -38.6383
LeftUpLeg  2.30568 4.25518 1.22003
LeftLeg  4.36868 12.9782 -2.55717
LeftFoot  -1.03274 -0.104674 1.22976
LeftToes  1.06247e-005 4.65855e-005 -8.18501e-006
867
root  -63.7342 41.4396 26.0932 175.671 -3.35048 178.233
RightUpLeg  0.480955 -8.48666 -5.69598
RightLeg  8.76806 -2.21963 2.25577
RightFoot  -3.53015 0.0506309 -1.09225
RightToes  0.00048216 0.542163 -0.142577
Spine  11.1662 1.3398 6.46559
Spine1  14.5403 4.23348 -6.60866
HEad  -33.4373 -12.5022 5.92275
LeftShoulder1  9.31938 -15.2343 -43.2554
LeftArm  -3.40019 16.8151 -25.9764
LeftForeArm  34.6313 -31.6408 -5.00077
LeftHand  -0.25398 0.0180481 5.50724
RightShoulder  2.13043 6.41302 14.6597
RightArm  -7.23563 48.163 57.8213
RightForeArm  158.133 63.2824 159.219
RightHand  -11.7781 23.3667 -43.9551
LeftUpLeg  1.21867 3.97178 1.00753
LeftLeg  4.05466 13.137 -2.59831
LeftFoot  -0.48695 -0.130521 1.40491
LeftToes  1.06247e-005 4.65855e-005 -8.18501e-006
